<?xml version="1.0" encoding="UTF-8"?><svg id="Design" xmlns="http://www.w3.org/2000/svg" viewBox="0 0 1011 693"><defs><style>.cls-1,.cls-2,.cls-3,.cls-4,.cls-5,.cls-6{stroke-width:2px;}.cls-1,.cls-2,.cls-3,.cls-5,.cls-6,.cls-7,.cls-8{stroke:#f59b23;}.cls-1,.cls-6{fill:#8c1932;}.cls-1,.cls-7,.cls-8{stroke-miterlimit:10;}.cls-9,.cls-10{fill:#fff;}.cls-2,.cls-3,.cls-4,.cls-11,.cls-5,.cls-12,.cls-10,.cls-13,.cls-14,.cls-15,.cls-16,.cls-6,.cls-17,.cls-18,.cls-19{stroke-linecap:round;stroke-linejoin:round;}.cls-2,.cls-8{fill:#1f3264;}.cls-3,.cls-20{fill:#ff4632;}.cls-4{stroke:#c3f0c8;}.cls-4,.cls-11,.cls-12,.cls-13,.cls-14,.cls-15,.cls-16,.cls-17{fill:none;}.cls-11,.cls-12,.cls-14{stroke:#ffc864;}.cls-11,.cls-10,.cls-15{stroke-width:7.99px;}.cls-21{fill:#f59b23;}.cls-22{fill:#c39687;}.cls-5,.cls-23,.cls-7{fill:#7d4b32;}.cls-12,.cls-16{stroke-width:3px;}.cls-10,.cls-15,.cls-16{stroke:#fff;}.cls-13{stroke:#503750;}.cls-13,.cls-17,.cls-18,.cls-19{stroke-width:4px;}.cls-24,.cls-18{fill:#006450;}.cls-25{fill:#ffc864;}.cls-26{fill:#503750;}.cls-14{stroke-width:5.99px;}.cls-17,.cls-18,.cls-19{stroke:#006450;}.cls-19{fill:#ff6437;}.cls-27{fill:#c3f0c8;}.cls-7,.cls-8{stroke-width:.99px;}</style></defs><rect class="cls-21" width="1011" height="693"/><path class="cls-7" d="M426.39,528.45l10.81-13.13c1.83-2.22,4.18-3.97,6.85-5.07l88.79-37.23c20.54-8.61,44.17,1.3,52.37,21.97l39.01,98.34c5.39,13.6,1.78,30.32-9.53,39.61l-11.58,7.97-52.67-3.48-124.05-108.99Z"/><path class="cls-22" d="M435.1,524.24c-9.44,3.66-17.32,12.09-13,26.28,3.11,10.24,27.16,76.16,40.31,112.07,4.73,12.91,18.95,19.67,31.98,15.2l107.56-36.9c13.49-4.48,20.54-19.26,15.52-32.54l-39.48-104.26c-5.98-18.09-26.06-27.35-43.74-20.16l-99.15,40.31Z"/><path class="cls-15" d="M551.32,584.44c-.22-9.98-8.59-18.12-16.81-22.33s-22.3-8.94-33.63-32.22c9.56,27.72,28.89,82.93,28.89,82.93"/><path class="cls-10" d="M528.99,611.88c-10.06-8.2-27.28,16.63-15,24.23,9.65,5.97,22.01-18.51,15-24.23Z"/><ellipse class="cls-23" cx="736.31" cy="310.07" rx="209.78" ry="203.32"/><ellipse class="cls-25" cx="723.32" cy="310.9" rx="209.78" ry="203.32"/><path class="cls-8" d="M612.21,364.69l-48.21,78.48s84.07,102.29,224.25,61.12c54.22-33.7,40.85-61.11,40.85-61.11l-102.67-53.1-114.22-25.4Z"/><path class="cls-6" d="M89.55,484.43s-37.33,58.54-14.67,109.98c22.67,51.44,74.22,77.61,162.22,78.5,88,.89,213.67-18.18,226.22-69.18-6.22-22.4-19.56-26.39-19.56-26.39l-16-8.87-3.33-9.31s-27.11-1.33-56.22,18.4c-29.11,19.74-112.22,29.05-162.67,13.75-50.44-15.3-50.22-35.04-49.33-52.11,.89-17.07-66.67-54.77-66.67-54.77Z"/><path class="cls-6" d="M426.39,640.92s22.46-11.22,31.38-20.78,8.58-17.05,6.75-19.37-15.58,8.56-15.58,8.56l-7.92,5.32"/><path class="cls-6" d="M426.39,631.09s36.13-21.76,43.05-29.66c6.92-7.9,7.83-22.12,1.58-24.86-6.25-2.74-31.58,23.87-31.58,23.87l-19.67,6.65"/><path class="cls-6" d="M415.18,619.64s28.42-13.97,41.58-26.69c13.17-12.72,26.5-22.31,24.25-32.48s-15.08-4.19-18.08-.86c-3,3.33-34.08,20.37-43.92,23.03"/><path class="cls-6" d="M406.85,600.44s39.42-11.15,54.83-32.02c15.42-20.87-4-18.29-7-14.8s-34.58,19.37-58,24.53"/><path class="cls-1" d="M338.88,511.93s74.22,25.28,116.89-47.01c42.67-72.29-5.78-145.46-20.89-168.97-15.11-23.5-44.11-60.31-50.44-86.92-6.33-26.61-1.33-50.56-1.33-50.56l-10-16.77s-6.33-36-7.56-40.11c-1.22-4.1-6.33-6.54-8.89-5.1-2.56,1.44-14.22,29.71-17.22,40.69s-10.11,51.35-9,82.66c1.11,31.32,31.33,87.99,40.67,128.39s-32.22,163.69-32.22,163.69Z"/><path class="cls-1" d="M347.99,137.96s7.44-26.83,17.89-41.24c10.44-14.41,27.11-28.72,33.67-27.94,6.56,.78,5.78,11.09-2.56,19.85-8.33,8.76-22.22,30.38-22.22,30.38"/><path class="cls-1" d="M353.77,136.74s8.78-22.29,22.78-36.03c14-13.75,26.89-22.95,31.22-17.41,4.33,5.54-9.33,19.29-17.89,29.82"/><path class="cls-1" d="M362.66,132.31s8.11-21.73,26.22-24.95c18.11-3.22,29.67,11.09,29.89,15.97,.22,4.88-2.56,10.87-8.89,8.09-6.33-2.77-8.56-10.2-17.78-2.77-9.22,7.43-11,23.39-4.56,29.82,6.44,6.43,15.22,12.31,22.22,15.19s11.33,4.43,11.78,11.64c.44,7.21-4.78,6.65-8.67,6.54-3.89-.11-31.56-9.98-30.11,14.52"/><ellipse class="cls-24" cx="228.12" cy="404.21" rx="168.57" ry="163.38"/><ellipse class="cls-27" cx="242.85" cy="391.42" rx="168.57" ry="163.38"/><ellipse class="cls-9" cx="145.93" cy="419.49" rx="39.17" ry="38.5"/><ellipse class="cls-9" cx="243.79" cy="387.66" rx="38.23" ry="37.58"/><ellipse class="cls-9" cx="337.88" cy="377.89" rx="38.23" ry="37.58"/><path class="cls-24" d="M256.99,385.65c-5.35,1.85-1.11,18.74,6.78,15.52,7.89-3.22-1.33-17.41-6.78-15.52Z"/><path class="cls-24" d="M154.1,418.46c-5.35,1.85-1.11,18.74,6.78,15.52s-1.33-17.41-6.78-15.52Z"/><path class="cls-24" d="M352.1,382.1c-5.24,1.03-3,17.24,3.78,15.97,6.78-1.28,1.83-17.07-3.78-15.97Z"/><path class="cls-18" d="M213.99,449.18s7.89,21.62,32.28,28.08c23.68,6.27,14.17-12.11,16.61-26.64-7.56,1-34,6.87-48.89-1.44Z"/><path class="cls-17" d="M262.88,450.62s13-2.55,18.11-8.65"/><path class="cls-19" d="M262.69,464.06c-13.39-6.49-19.84-.22-19.84-.22,0,0-3.86-2.31-9.92-2.59-2.83-.13-5.99,1.48-8.61,3.27,5.03,5.1,12.16,10.13,21.95,12.73,16.52,4.37,16.88-3.25,16.42-13.19Z"/><path class="cls-2" d="M582.21,413.25c-40.89-37.03-83.78-96.01-97.11-129.28-13.33-33.26-33.33-94.91-32.22-105.11s6.44-18.4,6.89-34.15c.44-15.74-13.33-30.82-15.78-30.82s-7.56-7.01-7.56-7.01c-11.33-16.28,14.18-16.6,29.11-13.67,14.56,2.86,22.67,22.89,29.33,40.63,6.67,17.74,33.22,67.53,50.56,96.8,17.33,29.27,71.67,92.13,127,109.43,55.33,17.3,241.11,53.44,218,194.91-25.78,15.52-92.89,18.85-93.78,12.64,1.78-20.4-2.29-58.13-51.56-66.15"/><path class="cls-2" d="M483.32,120.55s-10-25.72-15.44-37.92c-5.44-12.2-11.33-22.17-18.33-22.06-7,.11-9.22,4.66-8.56,7.32s13.22,26.72,16.33,39.8"/><path class="cls-2" d="M473.99,121.24s-24.06-44.79-28.06-48.23c-4-3.44-13.33-3.22-12.22,5.1,1.11,8.32,12.89,28.16,15.56,38.03"/><path class="cls-2" d="M468.7,125.69s-2.08-15.05-21.22-18.31c-19.14-3.26-30.17,10.55-32.5,15.37-2.33,4.82-3.67,12.31,2.83,13.3,6.5,1,12.67-11.14,21.5-8.98,8.83,2.16,17.5,11.81,13.17,28.44-4.33,16.63-16.24,18.79-21.87,22.29-5.63,3.49-10.01,8.16-8.68,11.51,3.17,7.98,21.05,9.12,37.88-5.69"/><path class="cls-2" d="M808.88,514.22s-4.22,31.19-74,37.22c-29.33-4.7-34.89-7.58-43.89-7.03-9,.55-34.11-7.54-40-6.76-5.89,.78-4.89,8.54,1.89,12.97,6.78,4.43,26.78,4.77,28.33,13.42s-7.56,7.32-15.67,8.87-53.11,1.44-56.22,8.65,3.22,10.31,19.22,10.98c16,.67,36.44-1,36.44-1,0,0-52.78,12.64-59.56,16.19-6.78,3.55-5.67,14.05,6.56,12.97,12.22-1.07,52-10.75,52-10.75,0,0-38.44,18.85-43.22,23.95s.67,9.3,9.22,7.03c8.56-2.26,45.89-15.68,45.89-15.68,0,0-21.78,15.63-24.56,18.96-2.78,3.33-.67,8.2,8,5.88,8.67-2.33,40.22-14.35,53.33-18.98,13.11-4.63,62-14.28,76.67-18.05,14.67-3.77,75.78-21.18,98.28-65.25,22.5-44.07-6.86-88.29-6.86-88.29"/><path class="cls-7" d="M158.77,145.67c-34,11.97-111.27,41.74-99.22,65.52,12.05,23.78,88.05,13.3,138.38-13.64,50.33-26.94,76-61.2,61.33-75-14.67-13.8-100.5,23.12-100.5,23.12Z"/><path class="cls-7" d="M92.66,104.59s5.78-10.64,14-12.42c8.22-1.77,30.89-9.53,41.56-15.08,10.67-5.54,29.02-10.77,40.95,1.39,11.93,12.16,16.6,30.71,16.6,30.71l-44.94,20.22-68.17-24.84Z"/><path class="cls-5" d="M135.77,96.08s12.89,2.52,22.44-5.9c9.56-8.43,19.56-17.3,25.11-15.74,5.56,1.55,40,34.81,41.78,64.97-6.89,7.1-50.67,49.01-124,47.01-8.22-29.49-20.22-57.65-16.89-72.95,3.33-15.3,11.56-23.23,28.67-17.38"/><path class="cls-3" d="M167.55,143.39c-42.66,14.63-75.22,14.38-75.22,14.38,2.87,9.11,6.04,18.8,8.78,28.64,73.33,2,117.11-39.91,124-47.01-.55-9.41-4.29-19.11-9.33-28.06,0,.02-5.58,17.43-48.23,32.06Z"/><ellipse class="cls-20" cx="872.43" cy="168.67" rx="94.44" ry="87.37"/><path class="cls-11" d="M242.85,74.25s38.58-4.68,47.92,34.95"/><path class="cls-14" d="M274.1,57.69s18.77,4.66,25.55,21.62"/><path class="cls-11" d="M798.43,75.32s35.56-29.94,81.11-22.62"/><ellipse class="cls-22" cx="746.65" cy="239.69" rx="90.29" ry="89.24" transform="translate(37.2 573.78) rotate(-43.01)"/><path class="cls-20" d="M806.75,172.35c-36.84-32.75-93.62-29.15-126.83,8.05-8.27,9.26-14.29,19.74-18.12,30.75,19.68,15.45,56.02,32.33,114.27,19.5,7.67,16.3,21,38.25,28,45.57,6.11-10.16,19.06-21.57,27.58-8.64,11.18-33.05,2.57-70.8-24.91-95.23Z"/><path class="cls-26" d="M677.07,252.66c-3.28-1.23-9.92,11.56-3.42,15.3,6.5,3.74,8.75-13.3,3.42-15.3Z"/><path class="cls-26" d="M762.24,273.09c-5.54-1.84-10.08,12.22-3.92,15.3,6.17,3.08,9.17-13.55,3.92-15.3Z"/><path class="cls-13" d="M710.21,280.48c-2.72-2.05-7.72-1.39-8.33,3.83s7.56,3.99,7.56,3.99"/><path class="cls-13" d="M719.82,302.77s12.81,.94,19.32-8.87"/><path class="cls-13" d="M808.93,292.51c-10.83,10.81-7.33,36.92,12.83,40.41,20.17,3.49,33.17-13.47,27.17-28.94-6-15.47-19.33-19.29-34.33-16.3"/><path class="cls-11" d="M924.77,532.99s0,51.89-53.67,81.82"/><path class="cls-14" d="M940.77,571.91s-13.33,32.6-29.67,42.91"/><polygon class="cls-25" points="675.48 334.87 668.1 423.23 759.65 362.36 675.48 334.87"/><path class="cls-24" d="M636.1,70.83c0,25.9-24.3,49.73-52.83,49.73s-49.61-21.39-49.61-47.29,22.24-49.34,50.78-49.34,51.67,21,51.67,46.9Z"/><path class="cls-27" d="M628.77,75.32c0,25.9-24.3,49.73-52.83,49.73s-49.61-21.39-49.61-47.29,22.24-49.34,50.78-49.34,51.67,21,51.67,46.9Z"/><path class="cls-24" d="M548.58,90.02c-1.48-.03-2.44,1.55-1.71,2.83,3.12,5.54,11.66,17.11,28.79,17.61,17.77,.52,25.33-11.75,27.74-16.98,.5-1.09-.28-2.33-1.49-2.36l-53.34-1.1Z"/><path class="cls-24" d="M552.85,66.75c-4.83,.08-4.54,13.1,0,13.14,4.54,.04,4.83-13.22,0-13.14Z"/><path class="cls-24" d="M598.01,66.75c-4.83,.08-4.54,13.1,0,13.14,4.54,.04,4.83-13.22,0-13.14Z"/><polygon class="cls-25" points="933.1 439.38 956.89 485.29 986.98 450.4 933.1 439.38"/><polygon class="cls-27" points="68.79 290.61 54.6 258.76 32.96 281.07 68.79 290.61"/><ellipse class="cls-4" cx="120.99" cy="589.08" rx="9.28" ry="9.26"/><line class="cls-4" x1="127.03" y1="596.1" x2="140.22" y2="609.15"/><path class="cls-4" d="M124.1,613.25s24.33,2.22,21.44-20.18"/><path class="cls-17" d="M104.88,360.47c9.56-9.75,23.78-15.07,25.78-15.29"/><path class="cls-17" d="M328.66,306.14s21.56,4.78,32,15.48"/><path class="cls-12" d="M769.18,149.96s26.14,8.51,44.14,28.69"/><path class="cls-27" d="M602.52,37.98l9.44-6.85s7.96,4.86,9.76,7.23c-6.74,5.98-7.87,7.85-7.87,7.85l-11.33-8.23Z"/><path class="cls-27" d="M626.45,43.52l-7.68,7.85,7.46,22.87,8.97-12.18s-1.83-10.25-8.75-18.53Z"/><path class="cls-16" d="M535.23,69.94s6.33-26.28,30.5-31.27"/></svg>